<?xml version="1.0" encoding="UTF-8" standalone="no"?>
<!-- Created with Inkscape (http://www.inkscape.org/) -->

<svg
   xmlns:dc="http://purl.org/dc/elements/1.1/"
   xmlns:cc="http://creativecommons.org/ns#"
   xmlns:rdf="http://www.w3.org/1999/02/22-rdf-syntax-ns#"
   xmlns:svg="http://www.w3.org/2000/svg"
   xmlns="http://www.w3.org/2000/svg"
   xmlns:sodipodi="http://sodipodi.sourceforge.net/DTD/sodipodi-0.dtd"
   xmlns:inkscape="http://www.inkscape.org/namespaces/inkscape"
   width="128"
   height="128"
   id="svg2"
   version="1.1"
   inkscape:version="0.48.2 r9819"
   sodipodi:docname="logo.png">
  <defs
     id="defs4">
    <inkscape:perspective
       sodipodi:type="inkscape:persp3d"
       inkscape:vp_x="0 : 64 : 1"
       inkscape:vp_y="0 : 1000 : 0"
       inkscape:vp_z="128 : 64 : 1"
       inkscape:persp3d-origin="64 : 42.666667 : 1"
       id="perspective2993" />
  </defs>
  <sodipodi:namedview
     id="base"
     pagecolor="#ffffff"
     bordercolor="#666666"
     borderopacity="1.0"
     inkscape:pageopacity="0.0"
     inkscape:pageshadow="2"
     inkscape:zoom="4.7734375"
     inkscape:cx="64"
     inkscape:cy="58.814667"
     inkscape:document-units="px"
     inkscape:current-layer="layer1"
     showgrid="false"
     inkscape:window-width="1440"
     inkscape:window-height="799"
     inkscape:window-x="0"
     inkscape:window-y="0"
     inkscape:window-maximized="1" />
  <metadata
     id="metadata7">
    <rdf:RDF>
      <cc:Work
         rdf:about="">
        <dc:format>image/svg+xml</dc:format>
        <dc:type
           rdf:resource="http://purl.org/dc/dcmitype/StillImage" />
        <dc:title></dc:title>
      </cc:Work>
    </rdf:RDF>
  </metadata>
  <g
     inkscape:label="Layer 1"
     inkscape:groupmode="layer"
     id="layer1"
     transform="translate(0,-924.36218)">
    <rect
       style="fill:#cccccc;fill-opacity:0.69777772;fill-rule:nonzero;stroke:#000000;stroke-width:0;stroke-linecap:butt;stroke-linejoin:miter;stroke-miterlimit:4;stroke-opacity:0.95555558;stroke-dasharray:none"
       id="rect3009-8-3"
       width="77.154434"
       height="58.489681"
       x="1210.9347"
       y="-1565.6005"
       ry="29.244841"
       rx="0"
       transform="matrix(-0.98573688,0.16829382,-0.84525729,-0.53435953,0,0)" />
    <path
       sodipodi:type="arc"
       style="fill:#f51100;fill-opacity:0.94666664;fill-rule:nonzero;stroke:#00da69;stroke-width:0;stroke-linecap:butt;stroke-linejoin:miter;stroke-miterlimit:4;stroke-opacity:0.95555558;stroke-dasharray:none"
       id="path3833"
       sodipodi:cx="38.252708"
       sodipodi:cy="20.209333"
       sodipodi:rx="6.0111399"
       sodipodi:ry="5.8745232"
       d="m 44.263848,20.209333 a 6.0111399,5.8745232 0 1 1 -12.022279,0 6.0111399,5.8745232 0 1 1 12.022279,0 z"
       transform="matrix(-0.92693551,0,0,-0.64600144,113.97666,1027.9776)" />
    <path
       sodipodi:type="arc"
       style="fill:#f51100;fill-opacity:0.94666664;fill-rule:nonzero;stroke:#00da69;stroke-width:0;stroke-linecap:butt;stroke-linejoin:miter;stroke-miterlimit:4;stroke-opacity:0.95555558;stroke-dasharray:none"
       id="path3833-7"
       sodipodi:cx="38.252708"
       sodipodi:cy="20.209333"
       sodipodi:rx="6.0111399"
       sodipodi:ry="5.8745232"
       d="m 44.263848,20.209333 a 6.0111399,5.8745232 0 1 1 -12.022279,0 6.0111399,5.8745232 0 1 1 12.022279,0 z"
       transform="matrix(-0.92693551,0,0,-0.64600144,57.400045,1040.768)" />
    <path
       sodipodi:type="arc"
       style="fill:#f51100;fill-opacity:0.94666664;fill-rule:nonzero;stroke:#00da69;stroke-width:0;stroke-linecap:butt;stroke-linejoin:miter;stroke-miterlimit:4;stroke-opacity:0.95555558;stroke-dasharray:none"
       id="path3833-9"
       sodipodi:cx="38.252708"
       sodipodi:cy="20.209333"
       sodipodi:rx="6.0111399"
       sodipodi:ry="5.8745232"
       d="m 44.263848,20.209333 a 6.0111399,5.8745232 0 1 1 -12.022279,0 6.0111399,5.8745232 0 1 1 12.022279,0 z"
       transform="matrix(-0.92693551,0,0,-0.64600144,80.545021,1052.8556)" />
    <path
       sodipodi:type="arc"
       style="fill:#f51100;fill-opacity:0.94666664;fill-rule:nonzero;stroke:#00da69;stroke-width:0;stroke-linecap:butt;stroke-linejoin:miter;stroke-miterlimit:4;stroke-opacity:0.95555558;stroke-dasharray:none"
       id="path3833-56"
       sodipodi:cx="38.252708"
       sodipodi:cy="20.209333"
       sodipodi:rx="6.0111399"
       sodipodi:ry="5.8745232"
       d="m 44.263848,20.209333 a 6.0111399,5.8745232 0 1 1 -12.022279,0 6.0111399,5.8745232 0 1 1 12.022279,0 z"
       transform="matrix(-0.92693551,0,0,-0.64600144,106.69027,1042.1735)" />
    <path
       sodipodi:type="arc"
       style="fill:#f51100;fill-opacity:0.94666664;fill-rule:nonzero;stroke:#00da69;stroke-width:0;stroke-linecap:butt;stroke-linejoin:miter;stroke-miterlimit:4;stroke-opacity:0.95555558;stroke-dasharray:none"
       id="path3833-1"
       sodipodi:cx="38.252708"
       sodipodi:cy="20.209333"
       sodipodi:rx="6.0111399"
       sodipodi:ry="5.8745232"
       d="m 44.263848,20.209333 a 6.0111399,5.8745232 0 1 1 -12.022279,0 6.0111399,5.8745232 0 1 1 12.022279,0 z"
       transform="matrix(-0.92693551,0,0,-0.64600144,146.12246,1047.0537)" />
    <rect
       style="fill:#cccccc;fill-opacity:0.69777772000000005;fill-rule:nonzero;stroke:#000000;stroke-width:0;stroke-linecap:butt;stroke-linejoin:miter;stroke-miterlimit:4;stroke-opacity:0.95555557999999996;stroke-dasharray:none"
       id="rect3009-8-3-5"
       width="77.154434"
       height="58.489677"
       x="1160.8805"
       y="-1504.8895"
       ry="29.244839"
       rx="0"
       transform="matrix(-0.98573687,0.16829384,-0.84525729,-0.53435954,0,0)" />
    <path
       sodipodi:type="arc"
       style="fill:#f51100;fill-opacity:0.94666664;fill-rule:nonzero;stroke:#00da69;stroke-width:0;stroke-linecap:butt;stroke-linejoin:miter;stroke-miterlimit:4;stroke-opacity:0.95555558;stroke-dasharray:none"
       id="path3833-2"
       sodipodi:cx="38.252708"
       sodipodi:cy="20.209333"
       sodipodi:rx="6.0111399"
       sodipodi:ry="5.8745232"
       d="m 44.263848,20.209333 a 6.0111399,5.8745232 0 1 1 -12.022279,0 6.0111399,5.8745232 0 1 1 12.022279,0 z"
       transform="matrix(-0.92693551,0,0,-0.64600144,114.19106,988.60148)" />
    <path
       sodipodi:type="arc"
       style="fill:#f51100;fill-opacity:0.94666664;fill-rule:nonzero;stroke:#00da69;stroke-width:0;stroke-linecap:butt;stroke-linejoin:miter;stroke-miterlimit:4;stroke-opacity:0.95555558;stroke-dasharray:none"
       id="path3833-7-8"
       sodipodi:cx="38.252708"
       sodipodi:cy="20.209333"
       sodipodi:rx="6.0111399"
       sodipodi:ry="5.8745232"
       d="m 44.263848,20.209333 a 6.0111399,5.8745232 0 1 1 -12.022279,0 6.0111399,5.8745232 0 1 1 12.022279,0 z"
       transform="matrix(-0.92693551,0,0,-0.64600144,57.614448,1001.3919)" />
    <path
       sodipodi:type="arc"
       style="fill:#f51100;fill-opacity:0.94666664;fill-rule:nonzero;stroke:#00da69;stroke-width:0;stroke-linecap:butt;stroke-linejoin:miter;stroke-miterlimit:4;stroke-opacity:0.95555558;stroke-dasharray:none"
       id="path3833-9-3"
       sodipodi:cx="38.252708"
       sodipodi:cy="20.209333"
       sodipodi:rx="6.0111399"
       sodipodi:ry="5.8745232"
       d="m 44.263848,20.209333 a 6.0111399,5.8745232 0 1 1 -12.022279,0 6.0111399,5.8745232 0 1 1 12.022279,0 z"
       transform="matrix(-0.92693551,0,0,-0.64600144,80.759424,1013.4795)" />
    <path
       sodipodi:type="arc"
       style="fill:#f51100;fill-opacity:0.94666664;fill-rule:nonzero;stroke:#00da69;stroke-width:0;stroke-linecap:butt;stroke-linejoin:miter;stroke-miterlimit:4;stroke-opacity:0.95555558;stroke-dasharray:none"
       id="path3833-56-3"
       sodipodi:cx="38.252708"
       sodipodi:cy="20.209333"
       sodipodi:rx="6.0111399"
       sodipodi:ry="5.8745232"
       d="m 44.263848,20.209333 a 6.0111399,5.8745232 0 1 1 -12.022279,0 6.0111399,5.8745232 0 1 1 12.022279,0 z"
       transform="matrix(-0.92693551,0,0,-0.64600144,106.90468,1002.7974)" />
    <path
       sodipodi:type="arc"
       style="fill:#f51100;fill-opacity:0.94666664;fill-rule:nonzero;stroke:#00da69;stroke-width:0;stroke-linecap:butt;stroke-linejoin:miter;stroke-miterlimit:4;stroke-opacity:0.95555558;stroke-dasharray:none"
       id="path3833-1-3"
       sodipodi:cx="38.252708"
       sodipodi:cy="20.209333"
       sodipodi:rx="6.0111399"
       sodipodi:ry="5.8745232"
       d="m 44.263848,20.209333 a 6.0111399,5.8745232 0 1 1 -12.022279,0 6.0111399,5.8745232 0 1 1 12.022279,0 z"
       transform="matrix(-0.92693551,0,0,-0.64600144,146.33686,1007.6776)" />
    <rect
       style="fill:#cccccc;fill-opacity:0.69777772000000005;fill-rule:nonzero;stroke:#000000;stroke-width:0;stroke-linecap:butt;stroke-linejoin:miter;stroke-miterlimit:4;stroke-opacity:0.95555557999999996;stroke-dasharray:none"
       id="rect3009-8-3-50"
       width="77.154434"
       height="58.489677"
       x="1109.8937"
       y="-1444.229"
       ry="29.244839"
       rx="0"
       transform="matrix(-0.98573687,0.16829384,-0.84525729,-0.53435954,0,0)" />
    <path
       sodipodi:type="arc"
       style="fill:#f51100;fill-opacity:0.94666664;fill-rule:nonzero;stroke:#00da69;stroke-width:0;stroke-linecap:butt;stroke-linejoin:miter;stroke-miterlimit:4;stroke-opacity:0.95555558;stroke-dasharray:none"
       id="path3833-3"
       sodipodi:cx="38.252708"
       sodipodi:cy="20.209333"
       sodipodi:rx="6.0111399"
       sodipodi:ry="5.8745232"
       d="m 44.263848,20.209333 a 6.0111399,5.8745232 0 1 1 -12.022279,0 6.0111399,5.8745232 0 1 1 12.022279,0 z"
       transform="matrix(-0.92693551,0,0,-0.64600144,114.3281,947.7299)" />
    <path
       sodipodi:type="arc"
       style="fill:#f51100;fill-opacity:0.94666664;fill-rule:nonzero;stroke:#00da69;stroke-width:0;stroke-linecap:butt;stroke-linejoin:miter;stroke-miterlimit:4;stroke-opacity:0.95555558;stroke-dasharray:none"
       id="path3833-7-0"
       sodipodi:cx="38.252708"
       sodipodi:cy="20.209333"
       sodipodi:rx="6.0111399"
       sodipodi:ry="5.8745232"
       d="m 44.263848,20.209333 a 6.0111399,5.8745232 0 1 1 -12.022279,0 6.0111399,5.8745232 0 1 1 12.022279,0 z"
       transform="matrix(-0.92693551,0,0,-0.64600144,59.000146,960.31552)" />
    <path
       sodipodi:type="arc"
       style="fill:#f51100;fill-opacity:0.94666664;fill-rule:nonzero;stroke:#00da69;stroke-width:0;stroke-linecap:butt;stroke-linejoin:miter;stroke-miterlimit:4;stroke-opacity:0.95555558;stroke-dasharray:none"
       id="path3833-9-2"
       sodipodi:cx="38.252708"
       sodipodi:cy="20.209333"
       sodipodi:rx="6.0111399"
       sodipodi:ry="5.8745232"
       d="m 44.263848,20.209333 a 6.0111399,5.8745232 0 1 1 -12.022279,0 6.0111399,5.8745232 0 1 1 12.022279,0 z"
       transform="matrix(-0.92693551,0,0,-0.64600144,80.896468,972.60793)" />
    <path
       sodipodi:type="arc"
       style="fill:#f51100;fill-opacity:0.94666664;fill-rule:nonzero;stroke:#00da69;stroke-width:0;stroke-linecap:butt;stroke-linejoin:miter;stroke-miterlimit:4;stroke-opacity:0.95555558;stroke-dasharray:none"
       id="path3833-56-31"
       sodipodi:cx="38.252708"
       sodipodi:cy="20.209333"
       sodipodi:rx="6.0111399"
       sodipodi:ry="5.8745232"
       d="m 44.263848,20.209333 a 6.0111399,5.8745232 0 1 1 -12.022279,0 6.0111399,5.8745232 0 1 1 12.022279,0 z"
       transform="matrix(-0.92693551,0,0,-0.64600144,107.04172,961.92582)" />
    <path
       sodipodi:type="arc"
       style="fill:#f51100;fill-opacity:0.94666664;fill-rule:nonzero;stroke:#00da69;stroke-width:0;stroke-linecap:butt;stroke-linejoin:miter;stroke-miterlimit:4;stroke-opacity:0.95555558;stroke-dasharray:none"
       id="path3833-1-7"
       sodipodi:cx="38.252708"
       sodipodi:cy="20.209333"
       sodipodi:rx="6.0111399"
       sodipodi:ry="5.8745232"
       d="m 44.263848,20.209333 a 6.0111399,5.8745232 0 1 1 -12.022279,0 6.0111399,5.8745232 0 1 1 12.022279,0 z"
       transform="matrix(-0.92693551,0,0,-0.64600144,146.47391,966.80602)" />
    <path
       style="fill:none;stroke:#000000;stroke-width:0.99999994px;stroke-linecap:butt;stroke-linejoin:miter;stroke-opacity:1"
       d="m 106.06219,1033.7494 c -29.676785,-3.6852 -29.343338,-3.6852 -29.343338,-3.6852"
       id="path3966"
       inkscape:connector-curvature="0" />
    <path
       style="fill:none;stroke:#000000;stroke-width:0.99999994px;stroke-linecap:butt;stroke-linejoin:miter;stroke-opacity:1"
       d="m 65.683921,1028.8632 c -38.918857,-0.4281 -38.489631,-0.4644 -38.489631,-0.4644"
       id="path3966-4"
       inkscape:connector-curvature="0" />
    <path
       style="fill:none;stroke:#000000;stroke-width:0.99999994px;stroke-linecap:butt;stroke-linejoin:miter;stroke-opacity:1"
       d="m 26.148386,1029.8595 c 14.35951,7.9846 14.35951,7.9846 14.35951,7.9846"
       id="path3986"
       inkscape:connector-curvature="0" />
    <path
       style="fill:none;stroke:#000000;stroke-width:1px;stroke-linecap:butt;stroke-linejoin:miter;stroke-opacity:1"
       d="m 76.406674,1018.599 c -3.121633,7.1657 -3.121633,7.1657 -3.121633,7.1657"
       id="path3988"
       inkscape:connector-curvature="0" />
    <path
       style="fill:none;stroke:#000000;stroke-width:1px;stroke-linecap:butt;stroke-linejoin:miter;stroke-opacity:1"
       d="m 82.649935,977.84657 c 24.348735,14.53047 24.348735,14.33142 24.348735,14.33142"
       id="path3992"
       inkscape:connector-curvature="0" />
    <path
       style="fill:none;stroke:#000000;stroke-width:1px;stroke-linecap:butt;stroke-linejoin:miter;stroke-opacity:1"
       d="m 105.43786,995.24902 c -54.004248,4.70889 -54.316412,4.70889 -54.316412,4.70889"
       id="path3994"
       inkscape:connector-curvature="0" />
    <path
       style="fill:none;stroke:#000000;stroke-width:1px;stroke-linecap:butt;stroke-linejoin:miter;stroke-opacity:1"
       d="M 66.41745,990.33539 C 28.021368,988.49278 27.709204,988.69751 27.709204,988.69751"
       id="path3998"
       inkscape:connector-curvature="0" />
    <path
       style="fill:none;stroke:#000000;stroke-width:1px;stroke-linecap:butt;stroke-linejoin:miter;stroke-opacity:1"
       d="M 48.936306,956.73832 C 74.221531,937.0838 74.221531,937.0838 74.221531,937.0838"
       id="path4004"
       inkscape:connector-curvature="0" />
    <path
       style="fill:none;stroke:#000000;stroke-width:0.99999994px;stroke-linecap:butt;stroke-linejoin:miter;stroke-opacity:1"
       d="m 73.133817,986.1861 3.644105,-7.02284"
       id="path4010"
       inkscape:connector-curvature="0" />
    <path
       style="fill:none;stroke:#000000;stroke-width:1px;stroke-linecap:butt;stroke-linejoin:miter;stroke-opacity:1"
       d="m 77.343164,949.16314 28.406856,3.27575"
       id="path4012"
       inkscape:connector-curvature="0" />
    <path
       style="fill:none;stroke:#000000;stroke-width:1px;stroke-linecap:butt;stroke-linejoin:miter;stroke-opacity:1"
       d="m 105.43786,954.99808 c -54.004248,4.70889 -54.316412,4.70889 -54.316412,4.70889"
       id="path3994-4"
       inkscape:connector-curvature="0" />
    <path
       style="fill:#dacf2f;fill-opacity:0.20000000000000001;stroke:#00c700;stroke-width:1;stroke-linecap:butt;stroke-linejoin:miter;stroke-miterlimit:4;stroke-opacity:1;stroke-dasharray:none;stroke-dashoffset:0"
       d="m 111.04111,1030.542 c 0,-31.90445 0.31216,-31.90445 0.31216,-31.90445 l 0,0"
       id="path4052"
       inkscape:connector-curvature="0" />
    <path
       style="fill:#dacf2f;fill-opacity:0.20000000000000001;stroke:#00c700;stroke-width:1;stroke-linecap:butt;stroke-linejoin:miter;stroke-miterlimit:4;stroke-opacity:1;stroke-dasharray:none;stroke-dashoffset:0"
       d="m 111.52504,990.76893 c 0,-33.3377 0.31216,-33.3377 0.31216,-33.3377 l 0,0"
       id="path4052-4"
       inkscape:connector-curvature="0" />
    <path
       style="fill:#dacf2f;fill-opacity:0.20000000000000001;stroke:#00c700;stroke-width:1;stroke-linecap:butt;stroke-linejoin:miter;stroke-miterlimit:4;stroke-opacity:1;stroke-dasharray:none;stroke-dashoffset:0"
       d="m 22.00438,1023.8487 c 0,-31.47346 0.312163,-31.47346 0.312163,-31.47346 l 0,0"
       id="path4052-8"
       inkscape:connector-curvature="0" />
    <path
       style="fill:#dacf2f;fill-opacity:0.20000000000000001;stroke:#00c700;stroke-width:1;stroke-linecap:butt;stroke-linejoin:miter;stroke-miterlimit:4;stroke-opacity:1;stroke-dasharray:none;stroke-dashoffset:0"
       d="m 22.816935,984.50894 c 0,-33.55319 0.312163,-33.55319 0.312163,-33.55319 l 0,0"
       id="path4052-4-4"
       inkscape:connector-curvature="0" />
    <path
       style="fill:#dacf2f;fill-opacity:0.20000000000000001;stroke:#00c700;stroke-width:1;stroke-linecap:butt;stroke-linejoin:miter;stroke-miterlimit:4;stroke-opacity:1;stroke-dasharray:none;stroke-dashoffset:0"
       d="m 45.104462,1035.8409 c 0,-31.4735 0.312163,-31.4735 0.312163,-31.4735 l 0,0"
       id="path4052-5"
       inkscape:connector-curvature="0" />
    <path
       style="fill:#dacf2f;fill-opacity:0.20000000000000001;stroke:#00c700;stroke-width:1;stroke-linecap:butt;stroke-linejoin:miter;stroke-miterlimit:4;stroke-opacity:1;stroke-dasharray:none;stroke-dashoffset:0"
       d="m 44.964069,996.36991 c 0,-33.3377 0.312163,-33.3377 0.312163,-33.3377 l 0,0"
       id="path4052-4-7"
       inkscape:connector-curvature="0" />
    <path
       style="fill:#dacf2f;fill-opacity:0.20000000000000001;stroke:#00c700;stroke-width:1;stroke-linecap:butt;stroke-linejoin:miter;stroke-miterlimit:4;stroke-opacity:1;stroke-dasharray:none;stroke-dashoffset:0"
       d="m 78.505932,1011.3134 c 0,-32.33559 0.312163,-32.33559 0.312163,-32.33559 l 0,0"
       id="path4052-3"
       inkscape:connector-curvature="0" />
    <path
       style="fill:#dacf2f;fill-opacity:0.20000000000000001;stroke:#00c700;stroke-width:1;stroke-linecap:butt;stroke-linejoin:miter;stroke-miterlimit:4;stroke-opacity:1;stroke-dasharray:none;stroke-dashoffset:0"
       d="m 78.989864,971.77819 c 0,-33.33769 0.312163,-33.33769 0.312163,-33.33769 l 0,0"
       id="path4052-4-75"
       inkscape:connector-curvature="0" />
    <path
       style="fill:none;stroke:#000000;stroke-width:0.99999994px;stroke-linecap:butt;stroke-linejoin:miter;stroke-opacity:1"
       d="m 27.084878,949.47024 c 14.359509,7.98465 14.359509,7.98465 14.359509,7.98465"
       id="path3986-2"
       inkscape:connector-curvature="0" />
    <path
       style="fill:#dacf2f;fill-opacity:0.20000000000000001;stroke:#00c700;stroke-width:1;stroke-linecap:butt;stroke-linejoin:miter;stroke-miterlimit:4;stroke-opacity:1;stroke-dasharray:none;stroke-dashoffset:0"
       d="m 70.319489,1025.4383 c 0,-32.33555 0.312163,-32.33555 0.312163,-32.33555 l 0,0"
       id="path4052-3-5"
       inkscape:connector-curvature="0" />
    <path
       style="fill:#dacf2f;fill-opacity:0.2;stroke:#00c700;stroke-width:1;stroke-linecap:butt;stroke-linejoin:miter;stroke-miterlimit:4;stroke-opacity:1;stroke-dasharray:none;stroke-dashoffset:0"
       d="m 70.631654,985.71319 c 0,-32.89459 0.312163,-32.89459 0.312163,-32.89459 l 0,0"
       id="path4052-3-7"
       inkscape:connector-curvature="0" />
    <path
       style="fill:none;stroke:#000000;stroke-width:0.99999994px;stroke-linecap:butt;stroke-linejoin:miter;stroke-opacity:1"
       d="m 73.684208,976.43407 c -46.748166,9.79066 -47.021446,9.8202 -47.021446,9.8202"
       id="path3994-7"
       inkscape:connector-curvature="0" />
  </g>
</svg>
